<?xml version="1.0" encoding="UTF-8"?>
<svg width="33px" height="36px" viewBox="0 0 33 36" version="1.1" xmlns="http://www.w3.org/2000/svg" xmlns:xlink="http://www.w3.org/1999/xlink">
    <!-- Generator: Sketch 63 (92445) - https://sketch.com -->
    <title>编组 42备份 2</title>
    <desc>Created with Sketch.</desc>
    <defs>
        <linearGradient x1="18.6306165%" y1="19.6656044%" x2="66.1091604%" y2="80.3343956%" id="linearGradient-1">
            <stop stop-color="#02F9F6" offset="0%"></stop>
            <stop stop-color="#2C6AFC" offset="100%"></stop>
        </linearGradient>
    </defs>
    <g id="确认稿" stroke="none" stroke-width="1" fill="none" fill-rule="evenodd">
        <g id="编组-42备份-2" transform="translate(0.000000, 0.500000)">
            <path d="M32.5165659,0 L20.4873161,16.7751648 L20.4873161,25.3272096 L18.0438747,25.3272096 L18.0438747,24.66936 L16.9161326,24.66936 L16.9161326,25.3272096 L15.7883904,25.3272096 L15.7883904,24.5048976 L14.2847342,24.5048976 L14.2847342,25.3272096 L12.0292498,25.3272096 L12.0292498,16.7751648 L10.2924107,14.3525754 C12.4486047,14.1156001 14.133446,13.2501521 15.3469344,11.7562316 C15.6657431,11.3637476 15.9516137,11.0010009 16.2045463,10.6679915 L23.4946286,0 L32.5165659,0 Z M18.7957029,24.0115104 L18.4197888,24.0115104 L18.4197888,24.3404352 L18.7957029,24.3404352 L18.7957029,24.66936 L19.3595739,24.66936 L19.3595739,24.1759728 L18.7957029,24.1759728 L18.7957029,24.0115104 Z M16.9161326,24.0115104 L16.3522615,24.0115104 L16.3522615,24.5048976 L16.9161326,24.5048976 L16.9161326,24.0115104 Z M14.4726912,24.0115104 L13.9088201,24.0115104 L13.9088201,24.3404352 L14.4726912,24.3404352 L14.4726912,24.0115104 Z M13.5329061,23.6825856 L13.156992,23.6825856 L13.156992,24.0115104 L13.5329061,24.0115104 L13.5329061,23.6825856 Z M16.5402185,23.3536608 L15.9763474,23.3536608 L15.9763474,23.6825856 L16.5402185,23.6825856 L16.5402185,23.3536608 Z M18.0438747,23.3536608 L17.6679607,23.3536608 L17.6679607,23.6825856 L18.0438747,23.6825856 L18.0438747,23.3536608 Z M13.9088201,22.6958112 L13.344949,22.6958112 L13.344949,23.1891984 L13.9088201,23.1891984 L13.9088201,22.6958112 Z M15.2245193,22.8602736 L14.8486053,22.8602736 L14.8486053,23.1891984 L15.2245193,23.1891984 L15.2245193,22.8602736 Z M17.2920466,22.5313488 L16.7281755,22.5313488 L16.7281755,23.024736 L17.2920466,23.024736 L17.2920466,22.5313488 Z M19.735488,22.5313488 L19.1716169,22.5313488 L19.1716169,23.024736 L19.735488,23.024736 L19.735488,22.5313488 Z M15.0365623,21.8734992 L14.4726912,21.8734992 L14.4726912,22.3668864 L15.0365623,22.3668864 L15.0365623,21.8734992 Z M18.0438747,21.7090368 L17.6679607,21.7090368 L17.6679607,22.0379616 L18.0438747,22.0379616 L18.0438747,21.7090368 Z M16.3522615,20.3933376 L15.7883904,20.3933376 L15.7883904,20.8867248 L16.3522615,20.8867248 L16.3522615,20.3933376 Z M9.02193737,0 L14.7129151,8.32741975 C14.064005,10.6315975 12.9798186,12.1120242 11.4603559,12.7686999 C10.8389037,13.0372768 10.1667285,13.1709189 9.4438303,13.1696263 L0,0 L9.02193737,0 Z" id="形状结合" fill="url(#linearGradient-1)"></path>
            <g id="编组-63" transform="translate(12.405164, 25.327210)">
                <path d="M5.2627968,0 L5.2627968,1.9735488 L2.25548434,1.9735488 L2.25548434,0.172197504 L3.38322651,0.172197504 L3.38322651,0 L5.2627968,0 Z M3.75914057,0.717654109 L2.81935543,0.717654109 L2.81935543,1.43530822 L3.75914057,1.43530822 L3.75914057,0.717654109 Z M4.69892571,0.538240582 L4.13505463,0.538240582 L4.13505463,1.07648116 L4.69892571,1.07648116 L4.69892571,0.538240582 Z" id="形状结合" fill="#2A70FC"></path>
                <rect id="矩形备份-244" fill="#2975FC" x="5.82666789" y="0.3289248" width="1" height="1"></rect>
                <rect id="矩形备份-248" fill="#2975FC" x="6.76645303" y="2.9603232" width="1" height="1"></rect>
                <rect id="矩形备份-249" fill="#2975FC" x="4.13505463" y="2.7958608" width="1.12774217" height="1"></rect>
                <rect id="矩形备份-250" fill="#2975FC" x="5.63871086" y="3.9470976" width="1" height="1"></rect>
                <rect id="矩形备份-251" fill="#2975FC" x="4.13505463" y="4.7694096" width="1.69161326" height="1.1512368"></rect>
                <rect id="矩形备份-253" fill="#2975FC" x="5.63871086" y="5.9206464" width="1.12774217" height="1"></rect>
                <rect id="矩形备份-254" fill="#2975FC" x="3.38322651" y="5.9206464" width="1" height="1"></rect>
                <rect id="矩形备份-255" fill="#2975FC" x="0.751828114" y="6.2495712" width="1.3156992" height="1"></rect>
                <rect id="矩形备份-256" fill="#2975FC" x="1.87957029" y="6.9074208" width="1" height="1"></rect>
                <rect id="矩形备份-257" fill="#2975FC" x="0.187957029" y="8.22312" width="1" height="1"></rect>
                <rect id="矩形备份-258" fill="#2975FC" x="3.19526949" y="8.5520448" width="1" height="1"></rect>
                <rect id="矩形备份-259" fill="#2975FC" x="4.13505463" y="7.0718832" width="1" height="1"></rect>
                <rect id="矩形备份-260" fill="#2975FC" x="5.82666789" y="8.0586576" width="1" height="1"></rect>
                <rect id="矩形备份-261" fill="#2975FC" x="2.06752731" y="4.7694096" width="1.12774217" height="1"></rect>
                <rect id="矩形备份-262" fill="#2975FC" x="0.187957029" y="0.3289248" width="1.12774217" height="1"></rect>
                <rect id="矩形备份-263" fill="#2975FC" x="0.939785143" y="1.644624" width="1.69161326" height="1.1512368"></rect>
                <rect id="矩形备份-264" fill="#2975FC" x="0" y="2.466936" width="1" height="1"></rect>
                <rect id="矩形备份-265" fill="#2975FC" x="1.12774217" y="3.7826352" width="1" height="1"></rect>
                <rect id="矩形备份-252" fill="#2975FC" x="2.25548434" y="2.7958608" width="1.69161326" height="1.1512368"></rect>
                <rect id="矩形备份-246" fill="#2975FC" x="6.39053897" y="0.9867744" width="1.50365623" height="1"></rect>
                <polygon id="矩形备份-247" fill="#2975FC" points="5.2627968 1.9735488 5.63871086 1.9735488 5.63871086 1.8090864 6.76645303 1.8090864 6.76645303 2.9603232 5.2627968 2.9603232"></polygon>
            </g>
        </g>
    </g>
</svg>