<?xml version="1.0" standalone="no"?><!DOCTYPE svg PUBLIC "-//W3C//DTD SVG 1.1//EN" "http://www.w3.org/Graphics/SVG/1.1/DTD/svg11.dtd"><svg t="1595922655756" class="icon" viewBox="0 0 1024 1024" version="1.1" xmlns="http://www.w3.org/2000/svg" p-id="1573" xmlns:xlink="http://www.w3.org/1999/xlink" width="200" height="200"><defs><style type="text/css"></style></defs><path d="M512 0C229.2 0 0 229.2 0 512s229.2 512 512 512 512-229.2 512-512S794.8 0 512 0z m0 133.1c115 0 208.3 82.8 208.3 216.9 0 134.2-93.2 269-208.3 269-115 0-208.3-134.8-208.3-269S397 133.1 512 133.1z m0 801c-170.8 0-316.5-89.8-373.5-206 57-48.9 146.5-85.8 252.1-102 18.8 18.6 66 35.3 121.4 35.3 55.4 0 102.6-16.7 121.4-35.3 105.7 16.3 195.1 53.1 252.1 102-57 116.2-202.7 206-373.5 206z" fill="#E5EAED" p-id="1574"></path><path d="M512 619c115 0 208.3-134.8 208.3-269S627.1 133.1 512 133.1c-115 0-208.3 82.8-208.3 216.9 0 134.2 93.3 269 208.3 269zM633.4 626.1c-18.8 18.6-66 35.3-121.4 35.3-55.4 0-102.6-16.7-121.4-35.3-105.7 16.3-195.1 53.1-252.1 102 57 116.2 202.7 206 373.5 206s316.5-89.8 373.5-206c-57-48.9-146.5-85.8-252.1-102z" fill="#FFFFFF" p-id="1575"></path></svg>